<?xml version="1.0" encoding="utf-8"?>
<!-- Generator: Adobe Illustrator 16.0.0, SVG Export Plug-In . SVG Version: 6.00 Build 0)  -->
<!DOCTYPE svg PUBLIC "-//W3C//DTD SVG 1.1//EN" "http://www.w3.org/Graphics/SVG/1.1/DTD/svg11.dtd">
<svg version="1.1" id="Layer_1" xmlns="http://www.w3.org/2000/svg" xmlns:xlink="http://www.w3.org/1999/xlink" x="0px" y="0px"
	 width="1024px" height="768px" viewBox="0 0 1024 768" enable-background="new 0 0 1024 768" xml:space="preserve">
<path fill="none" stroke="#000000" d="M162.592,254.158v7.943h9.183v-7.943h2.479v18.985h-2.479v-8.901h-9.183v8.901h-2.451v-18.985
	H162.592z"/>
<path fill="none" stroke="#000000" d="M179.803,266.777c0.056,3.352,2.197,4.732,4.676,4.732c1.774,0,2.845-0.31,3.774-0.704
	l0.422,1.774c-0.873,0.395-2.366,0.845-4.535,0.845c-4.197,0-6.704-2.76-6.704-6.873c0-4.112,2.422-7.352,6.394-7.352
	c4.451,0,5.634,3.915,5.634,6.422c0,0.507-0.057,0.901-0.084,1.155H179.803z M187.07,265.002c0.028-1.577-0.648-4.028-3.437-4.028
	c-2.507,0-3.605,2.31-3.802,4.028H187.07z"  class="typo"/>
<path fill="none" stroke="#000000" d="M192.534,253.144h2.479v19.999h-2.479V253.144z"  class="typo"/>
<path fill="none" stroke="#000000" d="M199.182,253.144h2.479v19.999h-2.479V253.144z"  class="typo"/>
<path fill="none" stroke="#000000" d="M218.167,266.213c0,5.042-3.493,7.239-6.788,7.239c-3.69,0-6.535-2.704-6.535-7.014
	c0-4.563,2.986-7.239,6.76-7.239C215.519,259.2,218.167,262.044,218.167,266.213z M207.35,266.354c0,2.986,1.718,5.239,4.141,5.239
	c2.366,0,4.141-2.225,4.141-5.295c0-2.31-1.155-5.239-4.084-5.239C208.618,261.059,207.35,263.763,207.35,266.354z"  class="typo"/>
<path fill="none" stroke="#000000" d="M160.057,286.945h2.479v8.506h0.056c0.395-0.704,1.014-1.324,1.774-1.746
	c0.732-0.422,1.606-0.704,2.535-0.704c1.831,0,4.76,1.126,4.76,5.831v8.112h-2.479v-7.831c0-2.197-0.817-4.056-3.155-4.056
	c-1.605,0-2.873,1.126-3.324,2.479c-0.141,0.338-0.169,0.705-0.169,1.183v8.225h-2.479V286.945z"  class="typo"/>
<path fill="none" stroke="#000000" d="M177.07,300.578c0.056,3.352,2.197,4.732,4.676,4.732c1.774,0,2.845-0.31,3.774-0.704
	l0.422,1.774c-0.873,0.395-2.366,0.845-4.535,0.845c-4.197,0-6.704-2.761-6.704-6.873s2.422-7.352,6.394-7.352
	c4.451,0,5.634,3.915,5.634,6.422c0,0.507-0.057,0.901-0.084,1.155H177.07z M184.337,298.803c0.028-1.577-0.648-4.028-3.437-4.028
	c-2.507,0-3.605,2.31-3.802,4.028H184.337z"  class="typo"/>
<path fill="none" stroke="#000000" d="M189.802,297.564c0-1.605-0.028-2.986-0.113-4.253h2.169l0.084,2.676h0.113
	c0.62-1.831,2.113-2.986,3.774-2.986c0.282,0,0.479,0.028,0.705,0.084v2.338c-0.254-0.057-0.507-0.084-0.845-0.084
	c-1.747,0-2.986,1.324-3.324,3.183c-0.057,0.338-0.113,0.732-0.113,1.155v7.267h-2.451V297.564z"  class="typo"/>
<path fill="none" stroke="#000000" d="M200.112,300.578c0.056,3.352,2.197,4.732,4.676,4.732c1.774,0,2.845-0.31,3.774-0.704
	l0.422,1.774c-0.873,0.395-2.366,0.845-4.535,0.845c-4.197,0-6.704-2.761-6.704-6.873s2.422-7.352,6.394-7.352
	c4.451,0,5.634,3.915,5.634,6.422c0,0.507-0.057,0.901-0.084,1.155H200.112z M207.379,298.803c0.028-1.577-0.648-4.028-3.437-4.028
	c-2.507,0-3.605,2.31-3.802,4.028H207.379z"  class="typo"/>
<path fill="none" stroke="#000000" d="M221.575,289.48c0.028,0.845-0.592,1.521-1.578,1.521c-0.873,0-1.493-0.676-1.493-1.521
	c0-0.874,0.647-1.549,1.549-1.549C220.983,287.931,221.575,288.606,221.575,289.48z M218.814,306.944v-13.633h2.479v13.633H218.814z
	"  class="typo"/>
<path fill="none" stroke="#000000" d="M225.068,304.409c0.732,0.479,2.028,0.986,3.268,0.986c1.803,0,2.647-0.901,2.647-2.028
	c0-1.183-0.704-1.831-2.535-2.507c-2.45-0.873-3.605-2.225-3.605-3.859c0-2.197,1.775-4,4.704-4c1.38,0,2.591,0.394,3.352,0.845
	l-0.62,1.803c-0.535-0.338-1.521-0.789-2.789-0.789c-1.465,0-2.282,0.845-2.282,1.859c0,1.127,0.817,1.634,2.591,2.31
	c2.366,0.901,3.578,2.084,3.578,4.112c0,2.395-1.859,4.084-5.099,4.084c-1.493,0-2.873-0.366-3.831-0.93L225.068,304.409z"  class="typo"/>
<path fill="none" stroke="#000000" d="M242.531,297c0-1.408-0.028-2.563-0.113-3.69h2.169l0.113,2.197h0.084
	c0.761-1.296,2.028-2.507,4.282-2.507c1.859,0,3.267,1.126,3.859,2.732h0.056c0.423-0.76,0.958-1.352,1.521-1.774
	c0.817-0.62,1.718-0.958,3.014-0.958c1.803,0,4.479,1.183,4.479,5.915v8.028h-2.422v-7.718c0-2.62-0.958-4.197-2.958-4.197
	c-1.408,0-2.507,1.042-2.93,2.253c-0.112,0.338-0.197,0.789-0.197,1.239v8.422h-2.422v-8.168c0-2.169-0.958-3.747-2.845-3.747
	c-1.549,0-2.676,1.239-3.07,2.479c-0.141,0.366-0.197,0.789-0.197,1.211v8.225h-2.422V297z"  class="typo"/>
<path fill="none" stroke="#000000" d="M266.559,293.311l2.986,8.056c0.31,0.901,0.648,1.972,0.873,2.789h0.057
	c0.253-0.817,0.535-1.859,0.873-2.845l2.704-8h2.62l-3.718,9.718c-1.774,4.676-2.986,7.07-4.676,8.535
	c-1.211,1.07-2.422,1.493-3.042,1.605l-0.62-2.084c0.62-0.197,1.437-0.591,2.169-1.211c0.676-0.535,1.521-1.493,2.084-2.76
	c0.112-0.253,0.197-0.451,0.197-0.591c0-0.141-0.056-0.338-0.169-0.648l-5.042-12.563H266.559z"  class="typo"/>
<path fill="none" stroke="#000000" d="M284.896,297.761c0-1.747-0.056-3.155-0.113-4.451h2.226l0.113,2.338h0.056
	c1.014-1.662,2.62-2.647,4.845-2.647c3.296,0,5.774,2.789,5.774,6.929c0,4.901-2.986,7.324-6.197,7.324
	c-1.803,0-3.38-0.789-4.197-2.141h-0.056v7.408h-2.451V297.761z M287.346,301.395c0,0.366,0.056,0.704,0.113,1.014
	c0.451,1.718,1.943,2.901,3.718,2.901c2.62,0,4.141-2.141,4.141-5.267c0-2.732-1.437-5.07-4.056-5.07
	c-1.69,0-3.268,1.211-3.747,3.07c-0.084,0.31-0.169,0.676-0.169,1.014V301.395z"  class="typo"/>
<path fill="none" stroke="#000000" d="M313.26,300.015c0,5.042-3.493,7.239-6.788,7.239c-3.69,0-6.535-2.704-6.535-7.014
	c0-4.563,2.986-7.239,6.76-7.239C310.613,293.001,313.26,295.846,313.26,300.015z M302.444,300.155c0,2.986,1.718,5.239,4.141,5.239
	c2.366,0,4.141-2.225,4.141-5.295c0-2.31-1.155-5.239-4.084-5.239C303.711,294.86,302.444,297.564,302.444,300.155z"  class="typo"/>
<path fill="none" stroke="#000000" d="M316.387,297.564c0-1.605-0.028-2.986-0.113-4.253h2.169l0.084,2.676h0.113
	c0.62-1.831,2.113-2.986,3.774-2.986c0.282,0,0.479,0.028,0.705,0.084v2.338c-0.254-0.057-0.507-0.084-0.845-0.084
	c-1.747,0-2.986,1.324-3.324,3.183c-0.057,0.338-0.113,0.732-0.113,1.155v7.267h-2.451V297.564z"  class="typo"/>
<path fill="none" stroke="#000000" d="M329.259,289.396v3.915h3.549v1.887h-3.549v7.352c0,1.69,0.479,2.647,1.859,2.647
	c0.648,0,1.127-0.084,1.437-0.169l0.113,1.859c-0.479,0.197-1.239,0.338-2.197,0.338c-1.155,0-2.084-0.366-2.676-1.042
	c-0.704-0.732-0.958-1.943-0.958-3.549v-7.437h-2.113v-1.887h2.113v-3.268L329.259,289.396z"  class="typo"/>
<path fill="none" stroke="#000000" d="M335.85,306.944v-11.746h-1.915v-1.887h1.915v-0.648c0-1.915,0.423-3.662,1.578-4.76
	c0.93-0.901,2.169-1.268,3.324-1.268c0.873,0,1.634,0.197,2.113,0.395l-0.338,1.916c-0.366-0.169-0.873-0.31-1.577-0.31
	c-2.113,0-2.648,1.859-2.648,3.943v0.732h3.296v1.887h-3.296v11.746H335.85z"  class="typo"/>
<path fill="none" stroke="#000000" d="M355.793,300.015c0,5.042-3.493,7.239-6.788,7.239c-3.69,0-6.535-2.704-6.535-7.014
	c0-4.563,2.986-7.239,6.76-7.239C353.146,293.001,355.793,295.846,355.793,300.015z M344.977,300.155
	c0,2.986,1.718,5.239,4.141,5.239c2.366,0,4.141-2.225,4.141-5.295c0-2.31-1.155-5.239-4.084-5.239
	C346.244,294.86,344.977,297.564,344.977,300.155z"  class="typo"/>
<path fill="none" stroke="#000000" d="M358.919,286.945h2.479v19.999h-2.479V286.945z"  class="typo"/>
<path fill="none" stroke="#000000" d="M368.328,289.48c0.028,0.845-0.592,1.521-1.578,1.521c-0.873,0-1.493-0.676-1.493-1.521
	c0-0.874,0.647-1.549,1.549-1.549C367.736,287.931,368.328,288.606,368.328,289.48z M365.567,306.944v-13.633h2.479v13.633H365.567z
	"/>
<path fill="none" stroke="#000000" d="M384.496,300.015c0,5.042-3.493,7.239-6.788,7.239c-3.69,0-6.535-2.704-6.535-7.014
	c0-4.563,2.986-7.239,6.76-7.239C381.848,293.001,384.496,295.846,384.496,300.015z M373.679,300.155
	c0,2.986,1.718,5.239,4.141,5.239c2.366,0,4.141-2.225,4.141-5.295c0-2.31-1.155-5.239-4.084-5.239
	C374.947,294.86,373.679,297.564,373.679,300.155z"  class="typo"/>
<path fill="none" stroke="#000000" d="M393.594,297.761c0-1.747-0.056-3.155-0.113-4.451h2.226l0.113,2.338h0.056
	c1.014-1.662,2.62-2.647,4.845-2.647c3.296,0,5.774,2.789,5.774,6.929c0,4.901-2.986,7.324-6.197,7.324
	c-1.803,0-3.38-0.789-4.197-2.141h-0.056v7.408h-2.451V297.761z M396.044,301.395c0,0.366,0.056,0.704,0.113,1.014
	c0.451,1.718,1.943,2.901,3.718,2.901c2.62,0,4.141-2.141,4.141-5.267c0-2.732-1.437-5.07-4.056-5.07
	c-1.69,0-3.268,1.211-3.747,3.07c-0.084,0.31-0.169,0.676-0.169,1.014V301.395z"  class="typo"/>
<path fill="none" stroke="#000000" d="M417.169,306.944l-0.197-1.718h-0.084c-0.761,1.07-2.226,2.028-4.169,2.028
	c-2.761,0-4.169-1.944-4.169-3.916c0-3.295,2.93-5.098,8.197-5.07v-0.282c0-1.126-0.31-3.155-3.099-3.155
	c-1.267,0-2.591,0.395-3.549,1.014l-0.563-1.634c1.127-0.732,2.761-1.211,4.479-1.211c4.169,0,5.183,2.845,5.183,5.577v5.098
	c0,1.183,0.056,2.338,0.225,3.268H417.169z M416.804,299.986c-2.704-0.056-5.774,0.423-5.774,3.07c0,1.605,1.07,2.366,2.338,2.366
	c1.774,0,2.901-1.127,3.295-2.282c0.084-0.253,0.141-0.535,0.141-0.789V299.986z"  class="typo"/>
<path fill="none" stroke="#000000" d="M423.197,297.564c0-1.605-0.028-2.986-0.113-4.253h2.169l0.084,2.676h0.113
	c0.62-1.831,2.113-2.986,3.774-2.986c0.282,0,0.479,0.028,0.705,0.084v2.338c-0.254-0.057-0.507-0.084-0.845-0.084
	c-1.747,0-2.986,1.324-3.324,3.183c-0.057,0.338-0.113,0.732-0.113,1.155v7.267h-2.451V297.564z"  class="typo"/>
<path fill="none" stroke="#000000" d="M436.07,289.396v3.915h3.549v1.887h-3.549v7.352c0,1.69,0.479,2.647,1.859,2.647
	c0.648,0,1.127-0.084,1.437-0.169l0.113,1.859c-0.479,0.197-1.239,0.338-2.197,0.338c-1.155,0-2.084-0.366-2.676-1.042
	c-0.704-0.732-0.958-1.943-0.958-3.549v-7.437h-2.113v-1.887h2.113v-3.268L436.07,289.396z"  class="typo"/>
<path fill="none" stroke="#000000" d="M441.731,305.479c0-1.042,0.704-1.774,1.69-1.774s1.662,0.732,1.662,1.774
	c0,1.014-0.648,1.775-1.69,1.775C442.407,307.254,441.731,306.493,441.731,305.479z"  class="typo"/>
<path fill="none" stroke="#000000" d="M162.818,323.282c0.028,0.845-0.592,1.521-1.578,1.521c-0.873,0-1.493-0.676-1.493-1.521
	c0-0.874,0.647-1.549,1.549-1.549C162.226,321.732,162.818,322.408,162.818,323.282z M160.057,340.746v-13.633h2.479v13.633H160.057
	z"  class="typo"/>
<path fill="none" stroke="#000000" d="M175.605,323.197v3.915h3.549V329h-3.549v7.352c0,1.69,0.479,2.647,1.859,2.647
	c0.648,0,1.127-0.084,1.437-0.169l0.112,1.859c-0.479,0.197-1.239,0.338-2.197,0.338c-1.155,0-2.084-0.366-2.676-1.042
	c-0.704-0.732-0.958-1.943-0.958-3.549V329h-2.113v-1.887h2.113v-3.268L175.605,323.197z"/>
<path fill="none" stroke="#000000" d="M181.943,331.366c0-1.605-0.028-2.986-0.113-4.253h2.169l0.084,2.676h0.113
	c0.62-1.831,2.113-2.986,3.774-2.986c0.282,0,0.479,0.028,0.704,0.084v2.338c-0.253-0.057-0.507-0.084-0.845-0.084
	c-1.747,0-2.986,1.324-3.324,3.183c-0.057,0.338-0.113,0.732-0.113,1.155v7.267h-2.451V331.366z"/>
<path fill="none" stroke="#000000" d="M194.027,323.282c0.028,0.845-0.592,1.521-1.578,1.521c-0.873,0-1.493-0.676-1.493-1.521
	c0-0.874,0.647-1.549,1.549-1.549C193.435,321.732,194.027,322.408,194.027,323.282z M191.266,340.746v-13.633h2.479v13.633H191.266
	z"/>
<path fill="none" stroke="#000000" d="M199.238,334.38c0.056,3.352,2.197,4.732,4.676,4.732c1.774,0,2.845-0.31,3.774-0.704
	l0.422,1.774c-0.873,0.395-2.366,0.845-4.535,0.845c-4.197,0-6.704-2.761-6.704-6.873s2.422-7.352,6.394-7.352
	c4.451,0,5.634,3.915,5.634,6.422c0,0.507-0.057,0.901-0.084,1.155H199.238z M206.505,332.605c0.028-1.577-0.648-4.028-3.437-4.028
	c-2.507,0-3.605,2.31-3.802,4.028H206.505z"/>
<path fill="none" stroke="#000000" d="M223.744,320.747v16.478c0,1.211,0.028,2.591,0.112,3.521h-2.225l-0.113-2.366h-0.056
	c-0.761,1.521-2.422,2.676-4.648,2.676c-3.295,0-5.831-2.789-5.831-6.93c-0.028-4.535,2.789-7.323,6.112-7.323
	c2.084,0,3.493,0.986,4.113,2.084h0.056v-8.141H223.744z M221.265,332.662c0-0.31-0.028-0.732-0.113-1.042
	c-0.366-1.577-1.718-2.873-3.577-2.873c-2.563,0-4.084,2.253-4.084,5.268c0,2.76,1.352,5.042,4.028,5.042
	c1.662,0,3.183-1.099,3.633-2.958c0.084-0.338,0.113-0.676,0.113-1.071V332.662z"/>
<path fill="none" stroke="#000000" d="M236.813,323.197v3.915h3.549V329h-3.549v7.352c0,1.69,0.479,2.647,1.859,2.647
	c0.648,0,1.127-0.084,1.437-0.169l0.113,1.859c-0.479,0.197-1.239,0.338-2.197,0.338c-1.155,0-2.084-0.366-2.676-1.042
	c-0.704-0.732-0.958-1.943-0.958-3.549V329h-2.113v-1.887h2.113v-3.268L236.813,323.197z"/>
<path fill="none" stroke="#000000" d="M255.319,333.816c0,5.042-3.493,7.239-6.788,7.239c-3.69,0-6.535-2.704-6.535-7.014
	c0-4.563,2.986-7.239,6.76-7.239C252.671,326.803,255.319,329.647,255.319,333.816z M244.502,333.957
	c0,2.986,1.718,5.239,4.141,5.239c2.366,0,4.141-2.225,4.141-5.295c0-2.31-1.155-5.239-4.084-5.239
	C245.77,328.662,244.502,331.366,244.502,333.957z"/>
<path fill="none" stroke="#000000" d="M264.417,330.802c0-1.408-0.028-2.563-0.113-3.69h2.169l0.113,2.197h0.084
	c0.761-1.296,2.028-2.507,4.282-2.507c1.859,0,3.267,1.126,3.859,2.732h0.056c0.423-0.76,0.958-1.352,1.521-1.774
	c0.817-0.62,1.718-0.958,3.014-0.958c1.803,0,4.479,1.183,4.479,5.915v8.028h-2.422v-7.718c0-2.62-0.958-4.197-2.958-4.197
	c-1.408,0-2.507,1.042-2.93,2.253c-0.112,0.338-0.197,0.789-0.197,1.239v8.422h-2.422v-8.168c0-2.169-0.958-3.747-2.845-3.747
	c-1.549,0-2.676,1.239-3.07,2.479c-0.141,0.366-0.197,0.789-0.197,1.211v8.225h-2.422V330.802z"/>
<path fill="none" stroke="#000000" d="M295.458,340.746l-0.197-1.718h-0.084c-0.761,1.07-2.226,2.028-4.169,2.028
	c-2.761,0-4.169-1.944-4.169-3.916c0-3.295,2.93-5.098,8.197-5.07v-0.282c0-1.126-0.31-3.155-3.098-3.155
	c-1.268,0-2.592,0.395-3.549,1.014l-0.563-1.634c1.127-0.732,2.76-1.211,4.479-1.211c4.169,0,5.183,2.845,5.183,5.577v5.098
	c0,1.183,0.056,2.338,0.225,3.268H295.458z M295.092,333.788c-2.704-0.056-5.774,0.423-5.774,3.07c0,1.605,1.07,2.366,2.338,2.366
	c1.774,0,2.901-1.127,3.295-2.282c0.084-0.253,0.141-0.535,0.141-0.789V333.788z"/>
<path fill="none" stroke="#000000" d="M303.937,333.366h0.056c0.338-0.479,0.817-1.07,1.211-1.549l4-4.704h2.985l-5.267,5.605
	l6,8.028h-3.014l-4.704-6.535l-1.268,1.408v5.126h-2.451v-19.999h2.451V333.366z"/>
<path fill="none" stroke="#000000" d="M316.077,334.38c0.056,3.352,2.197,4.732,4.676,4.732c1.774,0,2.845-0.31,3.774-0.704
	l0.422,1.774c-0.873,0.395-2.366,0.845-4.535,0.845c-4.197,0-6.704-2.761-6.704-6.873s2.422-7.352,6.394-7.352
	c4.451,0,5.634,3.915,5.634,6.422c0,0.507-0.057,0.901-0.084,1.155H316.077z M323.344,332.605c0.028-1.577-0.648-4.028-3.437-4.028
	c-2.507,0-3.605,2.31-3.802,4.028H323.344z"/>
<path fill="none" stroke="#000000" d="M334.779,330.802c0-1.408-0.028-2.563-0.113-3.69h2.169l0.113,2.197h0.084
	c0.761-1.296,2.028-2.507,4.282-2.507c1.859,0,3.267,1.126,3.859,2.732h0.056c0.423-0.76,0.958-1.352,1.521-1.774
	c0.817-0.62,1.718-0.958,3.014-0.958c1.803,0,4.479,1.183,4.479,5.915v8.028h-2.422v-7.718c0-2.62-0.958-4.197-2.958-4.197
	c-1.408,0-2.507,1.042-2.93,2.253c-0.112,0.338-0.197,0.789-0.197,1.239v8.422h-2.422v-8.168c0-2.169-0.958-3.747-2.845-3.747
	c-1.549,0-2.676,1.239-3.07,2.479c-0.141,0.366-0.197,0.789-0.197,1.211v8.225h-2.422V330.802z"/>
<path fill="none" stroke="#000000" d="M370.609,333.816c0,5.042-3.493,7.239-6.788,7.239c-3.69,0-6.535-2.704-6.535-7.014
	c0-4.563,2.986-7.239,6.76-7.239C367.961,326.803,370.609,329.647,370.609,333.816z M359.792,333.957
	c0,2.986,1.718,5.239,4.141,5.239c2.366,0,4.141-2.225,4.141-5.295c0-2.31-1.155-5.239-4.084-5.239
	C361.06,328.662,359.792,331.366,359.792,333.957z"/>
<path fill="none" stroke="#000000" d="M373.735,331.366c0-1.605-0.028-2.986-0.113-4.253h2.169l0.084,2.676h0.113
	c0.62-1.831,2.113-2.986,3.774-2.986c0.282,0,0.479,0.028,0.705,0.084v2.338c-0.254-0.057-0.507-0.084-0.845-0.084
	c-1.747,0-2.986,1.324-3.324,3.183c-0.057,0.338-0.113,0.732-0.113,1.155v7.267h-2.451V331.366z"/>
<path fill="none" stroke="#000000" d="M384.045,334.38c0.056,3.352,2.197,4.732,4.676,4.732c1.774,0,2.845-0.31,3.774-0.704
	l0.422,1.774c-0.873,0.395-2.366,0.845-4.535,0.845c-4.197,0-6.704-2.761-6.704-6.873s2.422-7.352,6.394-7.352
	c4.451,0,5.634,3.915,5.634,6.422c0,0.507-0.057,0.901-0.084,1.155H384.045z M391.313,332.605c0.028-1.577-0.648-4.028-3.437-4.028
	c-2.507,0-3.605,2.31-3.802,4.028H391.313z"/>
<path fill="none" stroke="#000000" d="M414.156,337.027c0,1.409,0.028,2.648,0.112,3.718h-2.197l-0.141-2.225h-0.056
	c-0.648,1.099-2.084,2.535-4.507,2.535c-2.141,0-4.704-1.183-4.704-5.972v-7.972h2.479v7.549c0,2.592,0.789,4.338,3.042,4.338
	c1.662,0,2.817-1.155,3.268-2.253c0.141-0.366,0.225-0.817,0.225-1.268v-8.366h2.479V337.027z"/>
<path fill="none" stroke="#000000" d="M417.931,338.21c0.732,0.479,2.028,0.986,3.268,0.986c1.803,0,2.647-0.901,2.647-2.028
	c0-1.183-0.704-1.831-2.535-2.507c-2.45-0.873-3.605-2.225-3.605-3.859c0-2.197,1.775-4,4.704-4c1.38,0,2.592,0.394,3.352,0.845
	l-0.62,1.803c-0.535-0.338-1.521-0.789-2.789-0.789c-1.465,0-2.282,0.845-2.282,1.859c0,1.127,0.817,1.634,2.591,2.31
	c2.366,0.901,3.578,2.084,3.578,4.112c0,2.395-1.859,4.084-5.099,4.084c-1.493,0-2.873-0.366-3.831-0.93L417.931,338.21z"/>
<path fill="none" stroke="#000000" d="M430.803,334.38c0.056,3.352,2.197,4.732,4.676,4.732c1.774,0,2.845-0.31,3.774-0.704
	l0.422,1.774c-0.873,0.395-2.366,0.845-4.535,0.845c-4.197,0-6.704-2.761-6.704-6.873s2.422-7.352,6.394-7.352
	c4.451,0,5.634,3.915,5.634,6.422c0,0.507-0.057,0.901-0.084,1.155H430.803z M438.07,332.605c0.028-1.577-0.648-4.028-3.437-4.028
	c-2.507,0-3.605,2.31-3.802,4.028H438.07z"/>
<path fill="none" stroke="#000000" d="M443.788,340.746V329h-1.915v-1.887h1.915v-0.648c0-1.915,0.423-3.662,1.578-4.76
	c0.93-0.901,2.169-1.268,3.324-1.268c0.873,0,1.634,0.197,2.113,0.395l-0.338,1.916c-0.366-0.169-0.873-0.31-1.577-0.31
	c-2.113,0-2.648,1.859-2.648,3.943v0.732h3.296V329h-3.296v11.746H443.788z"/>
<path fill="none" stroke="#000000" d="M463.167,337.027c0,1.409,0.028,2.648,0.112,3.718h-2.197l-0.141-2.225h-0.056
	c-0.648,1.099-2.084,2.535-4.507,2.535c-2.141,0-4.704-1.183-4.704-5.972v-7.972h2.479v7.549c0,2.592,0.789,4.338,3.042,4.338
	c1.662,0,2.817-1.155,3.268-2.253c0.141-0.366,0.225-0.817,0.225-1.268v-8.366h2.479V337.027z"/>
<path fill="none" stroke="#000000" d="M467.28,320.747h2.479v19.999h-2.479V320.747z"/>
<path fill="none" stroke="#000000" d="M487.447,340.746l-0.197-1.718h-0.084c-0.761,1.07-2.226,2.028-4.169,2.028
	c-2.761,0-4.169-1.944-4.169-3.916c0-3.295,2.93-5.098,8.197-5.07v-0.282c0-1.126-0.31-3.155-3.098-3.155
	c-1.268,0-2.592,0.395-3.549,1.014l-0.563-1.634c1.127-0.732,2.76-1.211,4.479-1.211c4.169,0,5.183,2.845,5.183,5.577v5.098
	c0,1.183,0.056,2.338,0.225,3.268H487.447z M487.081,333.788c-2.704-0.056-5.774,0.423-5.774,3.07c0,1.605,1.07,2.366,2.338,2.366
	c1.774,0,2.901-1.127,3.295-2.282c0.084-0.253,0.141-0.535,0.141-0.789V333.788z"/>
<path fill="none" stroke="#000000" d="M493.475,330.802c0-1.408-0.028-2.563-0.113-3.69h2.197l0.141,2.253h0.057
	c0.676-1.295,2.253-2.563,4.507-2.563c1.887,0,4.816,1.126,4.816,5.802v8.141h-2.479v-7.859c0-2.197-0.817-4.028-3.155-4.028
	c-1.634,0-2.901,1.155-3.324,2.535c-0.113,0.31-0.169,0.732-0.169,1.155v8.197h-2.479V330.802z"/>
<path fill="none" stroke="#000000" d="M520.883,320.747v16.478c0,1.211,0.028,2.591,0.112,3.521h-2.226l-0.112-2.366h-0.057
	c-0.76,1.521-2.422,2.676-4.647,2.676c-3.295,0-5.831-2.789-5.831-6.93c-0.028-4.535,2.789-7.323,6.113-7.323
	c2.084,0,3.492,0.986,4.112,2.084h0.057v-8.141H520.883z M518.404,332.662c0-0.31-0.028-0.732-0.113-1.042
	c-0.366-1.577-1.718-2.873-3.577-2.873c-2.563,0-4.084,2.253-4.084,5.268c0,2.76,1.352,5.042,4.028,5.042
	c1.662,0,3.184-1.099,3.634-2.958c0.085-0.338,0.113-0.676,0.113-1.071V332.662z"/>
<path fill="none" stroke="#000000" d="M531.22,340.746V329h-1.915v-1.887h1.915v-0.648c0-1.915,0.423-3.662,1.577-4.76
	c0.93-0.901,2.169-1.268,3.324-1.268c0.873,0,1.634,0.197,2.112,0.395l-0.338,1.916c-0.366-0.169-0.873-0.31-1.577-0.31
	c-2.112,0-2.647,1.859-2.647,3.943v0.732h3.295V329h-3.295v11.746H531.22z"/>
<path fill="none" stroke="#000000" d="M546.74,340.746l-0.197-1.718h-0.085c-0.761,1.07-2.225,2.028-4.169,2.028
	c-2.76,0-4.168-1.944-4.168-3.916c0-3.295,2.929-5.098,8.196-5.07v-0.282c0-1.126-0.31-3.155-3.099-3.155
	c-1.268,0-2.591,0.395-3.549,1.014l-0.563-1.634c1.127-0.732,2.761-1.211,4.479-1.211c4.169,0,5.183,2.845,5.183,5.577v5.098
	c0,1.183,0.057,2.338,0.226,3.268H546.74z M546.374,333.788c-2.704-0.056-5.774,0.423-5.774,3.07c0,1.605,1.07,2.366,2.338,2.366
	c1.774,0,2.901-1.127,3.296-2.282c0.084-0.253,0.141-0.535,0.141-0.789V333.788z"/>
<path fill="none" stroke="#000000" d="M552.769,330.802c0-1.408-0.028-2.563-0.113-3.69h2.197l0.141,2.253h0.057
	c0.676-1.295,2.253-2.563,4.507-2.563c1.887,0,4.816,1.126,4.816,5.802v8.141h-2.479v-7.859c0-2.197-0.816-4.028-3.155-4.028
	c-1.633,0-2.9,1.155-3.323,2.535c-0.112,0.31-0.169,0.732-0.169,1.155v8.197h-2.479V330.802z"/>
<path fill="none" stroke="#000000" d="M578.119,340.239c-0.648,0.338-2.085,0.789-3.916,0.789c-4.112,0-6.788-2.789-6.788-6.958
	c0-4.197,2.873-7.239,7.323-7.239c1.465,0,2.761,0.366,3.437,0.705l-0.563,1.915c-0.591-0.338-1.521-0.647-2.873-0.647
	c-3.126,0-4.816,2.31-4.816,5.154c0,3.155,2.028,5.099,4.732,5.099c1.408,0,2.338-0.366,3.042-0.676L578.119,340.239z"/>
<path fill="none" stroke="#000000" d="M582.429,327.112l2.985,8.056c0.31,0.901,0.647,1.972,0.873,2.789h0.057
	c0.253-0.817,0.535-1.859,0.873-2.845l2.704-8h2.62l-3.719,9.718c-1.774,4.676-2.985,7.07-4.676,8.535
	c-1.211,1.07-2.422,1.493-3.042,1.605l-0.62-2.084c0.62-0.197,1.437-0.591,2.169-1.211c0.677-0.535,1.521-1.493,2.085-2.76
	c0.112-0.253,0.197-0.451,0.197-0.591c0-0.141-0.057-0.338-0.169-0.648l-5.042-12.563H582.429z"/>
<path fill="none" stroke="#000000" d="M601.751,327.112l1.803,6.929c0.395,1.521,0.761,2.93,1.015,4.338h0.084
	c0.31-1.38,0.761-2.845,1.211-4.31l2.226-6.958h2.084l2.113,6.817c0.507,1.633,0.901,3.07,1.211,4.45h0.085
	c0.225-1.38,0.591-2.817,1.042-4.422l1.943-6.845h2.45l-4.394,13.633h-2.254l-2.084-6.507c-0.479-1.521-0.873-2.873-1.212-4.479
	h-0.056c-0.338,1.634-0.761,3.042-1.239,4.507l-2.197,6.479h-2.254l-4.112-13.633H601.751z"/>
<path fill="none" stroke="#000000" d="M622.595,334.38c0.057,3.352,2.197,4.732,4.676,4.732c1.774,0,2.845-0.31,3.774-0.704
	l0.423,1.774c-0.873,0.395-2.366,0.845-4.535,0.845c-4.197,0-6.704-2.761-6.704-6.873s2.423-7.352,6.395-7.352
	c4.45,0,5.633,3.915,5.633,6.422c0,0.507-0.056,0.901-0.084,1.155H622.595z M629.862,332.605c0.027-1.577-0.648-4.028-3.437-4.028
	c-2.507,0-3.605,2.31-3.803,4.028H629.862z"/>
<path fill="none" stroke="#000000" d="M635.214,340.746c0.057-0.93,0.113-2.31,0.113-3.521v-16.478h2.45v8.563h0.057
	c0.873-1.521,2.45-2.507,4.647-2.507c3.38,0,5.774,2.816,5.746,6.957c0,4.873-3.07,7.296-6.112,7.296
	c-1.972,0-3.549-0.761-4.563-2.563h-0.084l-0.113,2.253H635.214z M637.777,335.281c0,0.31,0.057,0.62,0.112,0.901
	c0.479,1.718,1.916,2.901,3.719,2.901c2.591,0,4.141-2.112,4.141-5.239c0-2.732-1.408-5.07-4.057-5.07
	c-1.689,0-3.268,1.155-3.774,3.042c-0.056,0.282-0.141,0.62-0.141,1.014V335.281z"/>
<path fill="none" stroke="#000000" d="M162.818,357.083c0.028,0.845-0.592,1.521-1.578,1.521c-0.873,0-1.493-0.676-1.493-1.521
	c0-0.874,0.647-1.549,1.549-1.549C162.226,355.534,162.818,356.209,162.818,357.083z M160.057,374.547v-13.633h2.479v13.633H160.057
	z"/>
<path fill="none" stroke="#000000" d="M166.648,364.604c0-1.408-0.028-2.563-0.113-3.69h2.197l0.141,2.253h0.056
	c0.676-1.295,2.253-2.563,4.507-2.563c1.887,0,4.816,1.126,4.816,5.802v8.141h-2.479v-7.859c0-2.197-0.817-4.028-3.155-4.028
	c-1.634,0-2.901,1.155-3.324,2.535c-0.113,0.31-0.169,0.732-0.169,1.155v8.197h-2.479V364.604z"/>
<path fill="none" stroke="#000000" d="M200.59,367.618c0,5.042-3.493,7.239-6.788,7.239c-3.69,0-6.535-2.704-6.535-7.014
	c0-4.563,2.986-7.239,6.76-7.239C197.942,360.604,200.59,363.449,200.59,367.618z M189.773,367.758c0,2.986,1.718,5.239,4.141,5.239
	c2.366,0,4.141-2.225,4.141-5.295c0-2.31-1.155-5.239-4.084-5.239C191.041,362.463,189.773,365.167,189.773,367.758z"/>
<path fill="none" stroke="#000000" d="M203.716,365.167c0-1.605-0.028-2.986-0.113-4.253h2.169l0.084,2.676h0.113
	c0.62-1.831,2.113-2.986,3.774-2.986c0.282,0,0.479,0.028,0.704,0.084v2.338c-0.253-0.057-0.507-0.084-0.845-0.084
	c-1.747,0-2.986,1.324-3.324,3.183c-0.057,0.338-0.113,0.732-0.113,1.155v7.267h-2.451V365.167z"/>
<path fill="none" stroke="#000000" d="M224.42,354.548v16.478c0,1.211,0.028,2.591,0.112,3.521h-2.225l-0.113-2.366h-0.056
	c-0.761,1.521-2.422,2.676-4.648,2.676c-3.295,0-5.831-2.789-5.831-6.93c-0.028-4.535,2.789-7.323,6.112-7.323
	c2.084,0,3.493,0.986,4.113,2.084h0.056v-8.141H224.42z M221.941,366.463c0-0.31-0.028-0.732-0.113-1.042
	c-0.366-1.577-1.718-2.873-3.577-2.873c-2.563,0-4.084,2.253-4.084,5.268c0,2.76,1.352,5.042,4.028,5.042
	c1.662,0,3.183-1.099,3.633-2.958c0.084-0.338,0.113-0.676,0.113-1.071V366.463z"/>
<path fill="none" stroke="#000000" d="M229.913,368.181c0.056,3.352,2.197,4.732,4.676,4.732c1.774,0,2.845-0.31,3.774-0.704
	l0.422,1.774c-0.873,0.395-2.366,0.845-4.535,0.845c-4.197,0-6.704-2.76-6.704-6.873c0-4.112,2.422-7.352,6.394-7.352
	c4.451,0,5.634,3.915,5.634,6.422c0,0.507-0.057,0.901-0.084,1.155H229.913z M237.18,366.406c0.028-1.577-0.648-4.028-3.437-4.028
	c-2.507,0-3.605,2.31-3.802,4.028H237.18z"/>
<path fill="none" stroke="#000000" d="M242.644,365.167c0-1.605-0.028-2.986-0.113-4.253h2.169l0.084,2.676h0.113
	c0.62-1.831,2.113-2.986,3.774-2.986c0.282,0,0.479,0.028,0.704,0.084v2.338c-0.253-0.057-0.507-0.084-0.845-0.084
	c-1.747,0-2.986,1.324-3.324,3.183c-0.057,0.338-0.113,0.732-0.113,1.155v7.267h-2.451V365.167z"/>
<path fill="none" stroke="#000000" d="M260.812,356.999v3.915h3.549v1.887h-3.549v7.352c0,1.69,0.479,2.647,1.859,2.647
	c0.648,0,1.127-0.084,1.437-0.169l0.113,1.859c-0.479,0.197-1.239,0.338-2.197,0.338c-1.155,0-2.084-0.366-2.676-1.042
	c-0.704-0.732-0.958-1.943-0.958-3.549v-7.437h-2.113v-1.887h2.113v-3.267L260.812,356.999z"/>
<path fill="none" stroke="#000000" d="M279.318,367.618c0,5.042-3.493,7.239-6.788,7.239c-3.69,0-6.535-2.704-6.535-7.014
	c0-4.563,2.986-7.239,6.76-7.239C276.671,360.604,279.318,363.449,279.318,367.618z M268.502,367.758
	c0,2.986,1.718,5.239,4.141,5.239c2.366,0,4.141-2.225,4.141-5.295c0-2.31-1.155-5.239-4.084-5.239
	C269.77,362.463,268.502,365.167,268.502,367.758z"/>
<path fill="none" stroke="#000000" d="M299.824,370.829c0,1.409,0.028,2.648,0.112,3.718h-2.197l-0.141-2.225h-0.056
	c-0.648,1.098-2.084,2.535-4.507,2.535c-2.141,0-4.704-1.183-4.704-5.972v-7.972h2.479v7.549c0,2.591,0.789,4.337,3.042,4.337
	c1.662,0,2.817-1.155,3.268-2.253c0.141-0.366,0.225-0.817,0.225-1.268v-8.366h2.479V370.829z"/>
<path fill="none" stroke="#000000" d="M303.599,372.012c0.732,0.479,2.028,0.986,3.268,0.986c1.803,0,2.647-0.901,2.647-2.028
	c0-1.183-0.704-1.831-2.535-2.507c-2.45-0.874-3.605-2.226-3.605-3.859c0-2.197,1.775-4,4.704-4c1.38,0,2.592,0.394,3.352,0.845
	l-0.62,1.803c-0.535-0.338-1.521-0.789-2.789-0.789c-1.465,0-2.282,0.845-2.282,1.859c0,1.127,0.817,1.634,2.591,2.31
	c2.366,0.901,3.578,2.084,3.578,4.112c0,2.395-1.859,4.084-5.099,4.084c-1.493,0-2.873-0.366-3.831-0.93L303.599,372.012z"/>
<path fill="none" stroke="#000000" d="M316.471,368.181c0.056,3.352,2.197,4.732,4.676,4.732c1.774,0,2.845-0.31,3.774-0.704
	l0.422,1.774c-0.873,0.395-2.366,0.845-4.535,0.845c-4.197,0-6.704-2.76-6.704-6.873c0-4.112,2.422-7.352,6.394-7.352
	c4.451,0,5.634,3.915,5.634,6.422c0,0.507-0.057,0.901-0.084,1.155H316.471z M323.738,366.406c0.028-1.577-0.648-4.028-3.437-4.028
	c-2.507,0-3.605,2.31-3.802,4.028H323.738z"/>
<path fill="none" stroke="#000000" d="M329.203,365.167c0-1.605-0.028-2.986-0.113-4.253h2.169l0.084,2.676h0.113
	c0.62-1.831,2.113-2.986,3.774-2.986c0.282,0,0.479,0.028,0.704,0.084v2.338c-0.253-0.057-0.507-0.084-0.845-0.084
	c-1.747,0-2.986,1.324-3.324,3.183c-0.057,0.338-0.113,0.732-0.113,1.155v7.267h-2.451V365.167z"/>
<path fill="none" stroke="#000000" d="M355.793,370.829c0,1.409,0.028,2.648,0.112,3.718h-2.197l-0.141-2.225h-0.056
	c-0.648,1.098-2.084,2.535-4.507,2.535c-2.141,0-4.704-1.183-4.704-5.972v-7.972h2.479v7.549c0,2.591,0.789,4.337,3.042,4.337
	c1.662,0,2.817-1.155,3.268-2.253c0.141-0.366,0.225-0.817,0.225-1.268v-8.366h2.479V370.829z"/>
<path fill="none" stroke="#000000" d="M359.567,372.012c0.732,0.479,2.028,0.986,3.268,0.986c1.803,0,2.647-0.901,2.647-2.028
	c0-1.183-0.704-1.831-2.535-2.507c-2.45-0.874-3.605-2.226-3.605-3.859c0-2.197,1.775-4,4.704-4c1.38,0,2.592,0.394,3.352,0.845
	l-0.62,1.803c-0.535-0.338-1.521-0.789-2.789-0.789c-1.465,0-2.282,0.845-2.282,1.859c0,1.127,0.817,1.634,2.591,2.31
	c2.366,0.901,3.578,2.084,3.578,4.112c0,2.395-1.859,4.084-5.099,4.084c-1.493,0-2.873-0.366-3.831-0.93L359.567,372.012z"/>
<path fill="none" stroke="#000000" d="M372.44,368.181c0.056,3.352,2.197,4.732,4.676,4.732c1.774,0,2.845-0.31,3.774-0.704
	l0.422,1.774c-0.873,0.395-2.366,0.845-4.535,0.845c-4.197,0-6.704-2.76-6.704-6.873c0-4.112,2.422-7.352,6.394-7.352
	c4.451,0,5.634,3.915,5.634,6.422c0,0.507-0.057,0.901-0.084,1.155H372.44z M379.707,366.406c0.028-1.577-0.648-4.028-3.437-4.028
	c-2.507,0-3.605,2.31-3.802,4.028H379.707z"/>
<path fill="none" stroke="#000000" d="M394.128,356.999v3.915h3.549v1.887h-3.549v7.352c0,1.69,0.479,2.647,1.859,2.647
	c0.648,0,1.127-0.084,1.437-0.169l0.113,1.859c-0.479,0.197-1.239,0.338-2.197,0.338c-1.155,0-2.084-0.366-2.676-1.042
	c-0.704-0.732-0.958-1.943-0.958-3.549v-7.437h-2.113v-1.887h2.113v-3.267L394.128,356.999z"/>
<path fill="none" stroke="#000000" d="M400.466,354.548h2.479v8.507h0.056c0.395-0.705,1.014-1.324,1.774-1.747
	c0.732-0.422,1.606-0.704,2.535-0.704c1.831,0,4.76,1.126,4.76,5.831v8.112h-2.479v-7.831c0-2.197-0.817-4.056-3.155-4.056
	c-1.605,0-2.873,1.126-3.324,2.479c-0.141,0.338-0.169,0.705-0.169,1.183v8.225h-2.479V354.548z"/>
<path fill="none" stroke="#000000" d="M418.86,357.083c0.028,0.845-0.592,1.521-1.578,1.521c-0.873,0-1.493-0.676-1.493-1.521
	c0-0.874,0.647-1.549,1.549-1.549C418.268,355.534,418.86,356.209,418.86,357.083z M416.099,374.547v-13.633h2.479v13.633H416.099z"
	/>
<path fill="none" stroke="#000000" d="M422.353,372.012c0.732,0.479,2.028,0.986,3.268,0.986c1.803,0,2.647-0.901,2.647-2.028
	c0-1.183-0.704-1.831-2.535-2.507c-2.45-0.874-3.605-2.226-3.605-3.859c0-2.197,1.775-4,4.704-4c1.38,0,2.592,0.394,3.352,0.845
	l-0.62,1.803c-0.535-0.338-1.521-0.789-2.789-0.789c-1.465,0-2.282,0.845-2.282,1.859c0,1.127,0.817,1.634,2.591,2.31
	c2.366,0.901,3.578,2.084,3.578,4.112c0,2.395-1.859,4.084-5.099,4.084c-1.493,0-2.873-0.366-3.831-0.93L422.353,372.012z"/>
<path fill="none" stroke="#000000" d="M440.802,360.914l1.803,6.929c0.395,1.521,0.761,2.93,1.014,4.338h0.084
	c0.31-1.38,0.761-2.845,1.211-4.31l2.225-6.958h2.084l2.112,6.817c0.507,1.634,0.901,3.07,1.211,4.45h0.084
	c0.225-1.38,0.591-2.816,1.042-4.422l1.944-6.845h2.451l-4.395,13.633h-2.253l-2.084-6.507c-0.479-1.521-0.874-2.873-1.211-4.479
	h-0.056c-0.338,1.634-0.761,3.042-1.24,4.507l-2.197,6.479h-2.253l-4.113-13.633H440.802z"/>
<path fill="none" stroke="#000000" d="M461.646,368.181c0.056,3.352,2.197,4.732,4.676,4.732c1.774,0,2.845-0.31,3.774-0.704
	l0.422,1.774c-0.873,0.395-2.366,0.845-4.535,0.845c-4.197,0-6.704-2.76-6.704-6.873c0-4.112,2.422-7.352,6.394-7.352
	c4.451,0,5.634,3.915,5.634,6.422c0,0.507-0.057,0.901-0.084,1.155H461.646z M468.913,366.406c0.028-1.577-0.648-4.028-3.437-4.028
	c-2.507,0-3.605,2.31-3.802,4.028H468.913z"/>
<path fill="none" stroke="#000000" d="M474.265,374.547c0.057-0.93,0.113-2.31,0.113-3.521v-16.478h2.451v8.563h0.056
	c0.874-1.521,2.451-2.507,4.648-2.507c3.38,0,5.774,2.816,5.746,6.958c0,4.873-3.07,7.295-6.112,7.295
	c-1.972,0-3.549-0.761-4.563-2.563h-0.084l-0.112,2.253H474.265z M476.828,369.083c0,0.31,0.056,0.62,0.113,0.901
	c0.479,1.718,1.916,2.901,3.718,2.901c2.591,0,4.141-2.112,4.141-5.239c0-2.732-1.409-5.07-4.056-5.07
	c-1.69,0-3.268,1.155-3.775,3.042c-0.056,0.282-0.141,0.62-0.141,1.014V369.083z"/>
<path fill="none" stroke="#000000" d="M496.376,364.604c0-1.408-0.028-2.563-0.113-3.69h2.169l0.113,2.197h0.084
	c0.761-1.296,2.028-2.507,4.282-2.507c1.859,0,3.267,1.126,3.859,2.732h0.056c0.423-0.76,0.958-1.352,1.521-1.774
	c0.817-0.62,1.718-0.958,3.014-0.958c1.803,0,4.479,1.183,4.479,5.915v8.028h-2.422v-7.718c0-2.62-0.958-4.197-2.958-4.197
	c-1.408,0-2.507,1.042-2.93,2.253c-0.112,0.338-0.197,0.789-0.197,1.239v8.422h-2.422v-8.168c0-2.169-0.958-3.747-2.845-3.747
	c-1.549,0-2.676,1.239-3.07,2.479c-0.141,0.366-0.197,0.789-0.197,1.211v8.225h-2.422V364.604z"/>
<path fill="none" stroke="#000000" d="M532.205,367.618c0,5.042-3.492,7.239-6.788,7.239c-3.69,0-6.535-2.704-6.535-7.014
	c0-4.563,2.985-7.239,6.761-7.239C529.558,360.604,532.205,363.449,532.205,367.618z M521.389,367.758
	c0,2.986,1.719,5.239,4.141,5.239c2.366,0,4.141-2.225,4.141-5.295c0-2.31-1.154-5.239-4.084-5.239S521.389,365.167,521.389,367.758
	z"/>
<path fill="none" stroke="#000000" d="M535.333,365.167c0-1.605-0.028-2.986-0.113-4.253h2.169l0.085,2.676h0.112
	c0.62-1.831,2.112-2.986,3.774-2.986c0.282,0,0.479,0.028,0.704,0.084v2.338c-0.253-0.057-0.507-0.084-0.845-0.084
	c-1.746,0-2.985,1.324-3.324,3.183c-0.056,0.338-0.112,0.732-0.112,1.155v7.267h-2.45V365.167z"/>
<path fill="none" stroke="#000000" d="M545.642,368.181c0.057,3.352,2.197,4.732,4.676,4.732c1.774,0,2.845-0.31,3.774-0.704
	l0.423,1.774c-0.873,0.395-2.366,0.845-4.535,0.845c-4.197,0-6.704-2.76-6.704-6.873c0-4.112,2.423-7.352,6.395-7.352
	c4.45,0,5.633,3.915,5.633,6.422c0,0.507-0.056,0.901-0.084,1.155H545.642z M552.909,366.406c0.027-1.577-0.648-4.028-3.437-4.028
	c-2.507,0-3.605,2.31-3.803,4.028H552.909z"/>
<path fill="none" stroke="#000000" d="M574.063,374.04c-0.648,0.338-2.085,0.789-3.916,0.789c-4.112,0-6.788-2.789-6.788-6.958
	c0-4.197,2.873-7.239,7.323-7.239c1.465,0,2.761,0.366,3.437,0.705l-0.563,1.915c-0.591-0.338-1.521-0.648-2.873-0.648
	c-3.126,0-4.816,2.31-4.816,5.155c0,3.155,2.028,5.099,4.732,5.099c1.408,0,2.338-0.366,3.042-0.676L574.063,374.04z"/>
<path fill="none" stroke="#000000" d="M589.132,367.618c0,5.042-3.492,7.239-6.788,7.239c-3.69,0-6.535-2.704-6.535-7.014
	c0-4.563,2.986-7.239,6.761-7.239C586.484,360.604,589.132,363.449,589.132,367.618z M578.315,367.758
	c0,2.986,1.719,5.239,4.141,5.239c2.366,0,4.141-2.225,4.141-5.295c0-2.31-1.154-5.239-4.084-5.239S578.315,365.167,578.315,367.758
	z"/>
<path fill="none" stroke="#000000" d="M592.26,364.604c0-1.408-0.028-2.563-0.113-3.69h2.169l0.113,2.197h0.084
	c0.761-1.296,2.028-2.507,4.281-2.507c1.859,0,3.268,1.126,3.859,2.732h0.057c0.422-0.76,0.957-1.352,1.521-1.774
	c0.817-0.62,1.719-0.958,3.014-0.958c1.803,0,4.479,1.183,4.479,5.915v8.028h-2.423v-7.718c0-2.62-0.958-4.197-2.958-4.197
	c-1.408,0-2.507,1.042-2.929,2.253c-0.113,0.338-0.197,0.789-0.197,1.239v8.422h-2.423v-8.168c0-2.169-0.957-3.747-2.845-3.747
	c-1.549,0-2.676,1.239-3.07,2.479c-0.141,0.366-0.197,0.789-0.197,1.211v8.225h-2.422V364.604z"/>
<path fill="none" stroke="#000000" d="M616.004,374.547v-11.746h-1.915v-1.887h1.915v-0.648c0-1.915,0.423-3.662,1.577-4.76
	c0.93-0.901,2.169-1.268,3.324-1.268c0.873,0,1.634,0.197,2.112,0.395l-0.338,1.916c-0.366-0.169-0.873-0.31-1.577-0.31
	c-2.112,0-2.647,1.859-2.647,3.943v0.732h3.295v1.887h-3.295v11.746H616.004z"/>
<path fill="none" stroke="#000000" d="M635.947,367.618c0,5.042-3.492,7.239-6.788,7.239c-3.69,0-6.535-2.704-6.535-7.014
	c0-4.563,2.985-7.239,6.761-7.239C633.3,360.604,635.947,363.449,635.947,367.618z M625.131,367.758
	c0,2.986,1.719,5.239,4.141,5.239c2.366,0,4.141-2.225,4.141-5.295c0-2.31-1.154-5.239-4.084-5.239S625.131,365.167,625.131,367.758
	z"/>
<path fill="none" stroke="#000000" d="M639.074,365.167c0-1.605-0.028-2.986-0.113-4.253h2.169l0.085,2.676h0.112
	c0.62-1.831,2.112-2.986,3.774-2.986c0.282,0,0.479,0.028,0.704,0.084v2.338c-0.253-0.057-0.507-0.084-0.845-0.084
	c-1.746,0-2.986,1.324-3.324,3.183c-0.056,0.338-0.112,0.732-0.112,1.155v7.267h-2.45V365.167z"/>
<path fill="none" stroke="#000000" d="M651.946,356.999v3.915h3.549v1.887h-3.549v7.352c0,1.69,0.479,2.647,1.859,2.647
	c0.647,0,1.126-0.084,1.437-0.169l0.112,1.859c-0.479,0.197-1.239,0.338-2.197,0.338c-1.154,0-2.084-0.366-2.676-1.042
	c-0.704-0.732-0.958-1.943-0.958-3.549v-7.437h-2.112v-1.887h2.112v-3.267L651.946,356.999z"/>
<path fill="none" stroke="#000000" d="M665.833,374.547l-0.197-1.718h-0.085c-0.76,1.07-2.225,2.028-4.169,2.028
	c-2.76,0-4.168-1.944-4.168-3.916c0-3.295,2.929-5.098,8.196-5.07v-0.282c0-1.126-0.31-3.155-3.099-3.155
	c-1.268,0-2.591,0.395-3.549,1.014l-0.563-1.634c1.127-0.732,2.761-1.211,4.479-1.211c4.169,0,5.183,2.845,5.183,5.577v5.098
	c0,1.183,0.057,2.338,0.226,3.268H665.833z M665.467,367.589c-2.704-0.056-5.774,0.422-5.774,3.07c0,1.605,1.07,2.366,2.338,2.366
	c1.774,0,2.901-1.127,3.296-2.282c0.084-0.253,0.141-0.535,0.141-0.789V367.589z"/>
<path fill="none" stroke="#000000" d="M671.748,374.547c0.057-0.93,0.113-2.31,0.113-3.521v-16.478h2.45v8.563h0.057
	c0.873-1.521,2.45-2.507,4.647-2.507c3.38,0,5.774,2.816,5.746,6.958c0,4.873-3.07,7.295-6.112,7.295
	c-1.972,0-3.549-0.761-4.563-2.563h-0.084l-0.113,2.253H671.748z M674.312,369.083c0,0.31,0.057,0.62,0.112,0.901
	c0.479,1.718,1.916,2.901,3.719,2.901c2.591,0,4.141-2.112,4.141-5.239c0-2.732-1.408-5.07-4.057-5.07
	c-1.689,0-3.268,1.155-3.774,3.042c-0.056,0.282-0.141,0.62-0.141,1.014V369.083z"/>
<path fill="none" stroke="#000000" d="M687.888,354.548h2.479v19.999h-2.479V354.548z"/>
<path fill="none" stroke="#000000" d="M695.915,368.181c0.057,3.352,2.197,4.732,4.676,4.732c1.774,0,2.845-0.31,3.774-0.704
	l0.423,1.774c-0.873,0.395-2.366,0.845-4.535,0.845c-4.197,0-6.704-2.76-6.704-6.873c0-4.112,2.423-7.352,6.395-7.352
	c4.45,0,5.633,3.915,5.633,6.422c0,0.507-0.056,0.901-0.084,1.155H695.915z M703.183,366.406c0.027-1.577-0.648-4.028-3.437-4.028
	c-2.507,0-3.605,2.31-3.803,4.028H703.183z"/>
<path fill="none" stroke="#000000" d="M707.718,373.082c0-1.042,0.704-1.774,1.69-1.774c0.985,0,1.661,0.732,1.661,1.774
	c0,1.014-0.647,1.775-1.689,1.775C708.394,374.857,707.718,374.096,707.718,373.082z"/>
<path fill="none" stroke="#000000" d="M163.043,390.8v3.916h3.549v1.887h-3.549v7.352c0,1.69,0.479,2.648,1.859,2.648
	c0.648,0,1.127-0.085,1.437-0.169l0.112,1.858c-0.479,0.197-1.239,0.338-2.197,0.338c-1.155,0-2.084-0.366-2.676-1.042
	c-0.704-0.732-0.958-1.943-0.958-3.549v-7.437h-2.113v-1.887h2.113v-3.268L163.043,390.8z"/>
<path fill="none" stroke="#000000" d="M169.38,388.35h2.479v8.507h0.056c0.395-0.704,1.014-1.324,1.774-1.747
	c0.732-0.422,1.606-0.704,2.535-0.704c1.831,0,4.76,1.127,4.76,5.831v8.112h-2.479v-7.831c0-2.196-0.817-4.056-3.155-4.056
	c-1.605,0-2.873,1.127-3.324,2.479c-0.141,0.338-0.169,0.704-0.169,1.184v8.225h-2.479V388.35z"/>
<path fill="none" stroke="#000000" d="M186.168,394.716l1.944,2.929c0.507,0.761,0.93,1.465,1.38,2.226h0.085
	c0.451-0.816,0.901-1.521,1.352-2.253l1.915-2.901h2.676l-4.648,6.591l4.789,7.042h-2.817l-2-3.07
	c-0.536-0.789-0.986-1.549-1.465-2.366h-0.057c-0.451,0.817-0.929,1.55-1.437,2.366l-1.972,3.07h-2.732l4.845-6.957l-4.62-6.676
	H186.168z"/>
<path fill="none" stroke="#000000" d="M211.575,408.349l-0.197-1.718h-0.084c-0.761,1.07-2.226,2.027-4.169,2.027
	c-2.761,0-4.169-1.943-4.169-3.915c0-3.296,2.93-5.099,8.197-5.07v-0.281c0-1.127-0.31-3.155-3.098-3.155
	c-1.268,0-2.592,0.395-3.549,1.015l-0.563-1.634c1.127-0.732,2.76-1.212,4.479-1.212c4.169,0,5.183,2.846,5.183,5.577v5.099
	c0,1.184,0.056,2.338,0.225,3.268H211.575z M211.209,401.392c-2.704-0.057-5.774,0.422-5.774,3.07c0,1.605,1.07,2.365,2.338,2.365
	c1.774,0,2.901-1.126,3.295-2.281c0.084-0.253,0.141-0.535,0.141-0.789V401.392z"/>
<path fill="none" stroke="#000000" d="M223.575,388.35h2.479v19.999h-2.479V388.35z"/>
<path fill="none" stroke="#000000" d="M242.56,401.419c0,5.042-3.493,7.239-6.788,7.239c-3.69,0-6.535-2.704-6.535-7.014
	c0-4.563,2.986-7.239,6.76-7.239C239.912,394.405,242.56,397.251,242.56,401.419z M231.743,401.561c0,2.985,1.718,5.239,4.141,5.239
	c2.366,0,4.141-2.226,4.141-5.296c0-2.31-1.155-5.239-4.084-5.239C233.011,396.265,231.743,398.969,231.743,401.561z"/>
<path fill="none" stroke="#000000" d="M248.672,390.8v3.916h3.549v1.887h-3.549v7.352c0,1.69,0.479,2.648,1.859,2.648
	c0.648,0,1.127-0.085,1.437-0.169l0.112,1.858c-0.479,0.197-1.239,0.338-2.197,0.338c-1.155,0-2.084-0.366-2.676-1.042
	c-0.704-0.732-0.958-1.943-0.958-3.549v-7.437h-2.113v-1.887h2.113v-3.268L248.672,390.8z"/>
<path fill="none" stroke="#000000" d="M261.234,408.349v-11.746h-1.915v-1.887h1.915v-0.648c0-1.915,0.423-3.661,1.578-4.76
	c0.93-0.901,2.169-1.268,3.324-1.268c0.873,0,1.634,0.197,2.113,0.394l-0.338,1.916c-0.366-0.169-0.873-0.31-1.577-0.31
	c-2.113,0-2.648,1.858-2.648,3.943v0.732h3.296v1.887h-3.296v11.746H261.234z"/>
<path fill="none" stroke="#000000" d="M281.177,401.419c0,5.042-3.493,7.239-6.788,7.239c-3.69,0-6.535-2.704-6.535-7.014
	c0-4.563,2.986-7.239,6.76-7.239C278.53,394.405,281.177,397.251,281.177,401.419z M270.361,401.561
	c0,2.985,1.718,5.239,4.141,5.239c2.366,0,4.141-2.226,4.141-5.296c0-2.31-1.155-5.239-4.084-5.239
	C271.628,396.265,270.361,398.969,270.361,401.561z"/>
<path fill="none" stroke="#000000" d="M284.304,398.969c0-1.605-0.028-2.985-0.113-4.253h2.169l0.084,2.676h0.113
	c0.62-1.831,2.113-2.986,3.774-2.986c0.282,0,0.479,0.028,0.705,0.085v2.338c-0.254-0.057-0.507-0.085-0.845-0.085
	c-1.747,0-2.986,1.324-3.324,3.184c-0.057,0.338-0.113,0.732-0.113,1.154v7.268h-2.451V398.969z"/>
<path fill="none" stroke="#000000" d="M300.472,394.716l1.803,6.929c0.395,1.521,0.761,2.93,1.014,4.338h0.084
	c0.31-1.38,0.761-2.845,1.211-4.31l2.225-6.957h2.084l2.112,6.816c0.507,1.634,0.901,3.07,1.211,4.45h0.084
	c0.225-1.38,0.591-2.816,1.042-4.422l1.944-6.845h2.451l-4.395,13.633h-2.253l-2.084-6.507c-0.479-1.521-0.874-2.873-1.211-4.479
	h-0.056c-0.338,1.634-0.761,3.042-1.24,4.507l-2.197,6.479h-2.253l-4.113-13.633H300.472z"/>
<path fill="none" stroke="#000000" d="M321.316,401.982c0.056,3.353,2.197,4.732,4.676,4.732c1.774,0,2.845-0.31,3.774-0.704
	l0.422,1.774c-0.873,0.395-2.366,0.845-4.535,0.845c-4.197,0-6.704-2.76-6.704-6.872c0-4.113,2.422-7.353,6.394-7.353
	c4.451,0,5.634,3.916,5.634,6.423c0,0.507-0.057,0.901-0.084,1.154H321.316z M328.583,400.208c0.028-1.577-0.648-4.028-3.437-4.028
	c-2.507,0-3.605,2.311-3.802,4.028H328.583z"/>
<path fill="none" stroke="#000000" d="M334.047,388.35h2.479v19.999h-2.479V388.35z"/>
<path fill="none" stroke="#000000" d="M350.413,407.842c-0.647,0.338-2.084,0.788-3.915,0.788c-4.113,0-6.789-2.788-6.789-6.957
	c0-4.197,2.873-7.239,7.324-7.239c1.465,0,2.76,0.366,3.437,0.704l-0.563,1.916c-0.591-0.338-1.521-0.648-2.873-0.648
	c-3.126,0-4.817,2.31-4.817,5.155c0,3.154,2.028,5.098,4.732,5.098c1.408,0,2.338-0.366,3.042-0.676L350.413,407.842z"/>
<path fill="none" stroke="#000000" d="M365.482,401.419c0,5.042-3.493,7.239-6.788,7.239c-3.69,0-6.535-2.704-6.535-7.014
	c0-4.563,2.986-7.239,6.76-7.239C362.835,394.405,365.482,397.251,365.482,401.419z M354.666,401.561
	c0,2.985,1.718,5.239,4.141,5.239c2.366,0,4.141-2.226,4.141-5.296c0-2.31-1.155-5.239-4.084-5.239
	C355.934,396.265,354.666,398.969,354.666,401.561z"/>
<path fill="none" stroke="#000000" d="M368.609,398.405c0-1.408-0.028-2.563-0.113-3.689h2.169l0.113,2.196h0.084
	c0.761-1.295,2.028-2.507,4.282-2.507c1.859,0,3.267,1.127,3.859,2.732h0.056c0.423-0.761,0.958-1.352,1.521-1.774
	c0.817-0.62,1.718-0.958,3.014-0.958c1.803,0,4.479,1.184,4.479,5.916v8.027h-2.422v-7.718c0-2.62-0.958-4.197-2.958-4.197
	c-1.408,0-2.507,1.042-2.93,2.254c-0.112,0.338-0.197,0.788-0.197,1.239v8.422h-2.422v-8.169c0-2.169-0.958-3.746-2.845-3.746
	c-1.549,0-2.676,1.239-3.07,2.479c-0.141,0.366-0.197,0.789-0.197,1.212v8.225h-2.422V398.405z"/>
<path fill="none" stroke="#000000" d="M394.862,390.885c0.028,0.845-0.592,1.521-1.578,1.521c-0.873,0-1.493-0.676-1.493-1.521
	c0-0.873,0.647-1.55,1.549-1.55C394.27,389.335,394.862,390.012,394.862,390.885z M392.101,408.349v-13.633h2.479v13.633H392.101z"
	/>
<path fill="none" stroke="#000000" d="M398.692,398.405c0-1.408-0.028-2.563-0.113-3.689h2.197l0.141,2.253h0.056
	c0.676-1.296,2.253-2.563,4.507-2.563c1.887,0,4.816,1.127,4.816,5.803v8.141h-2.479v-7.858c0-2.197-0.817-4.028-3.155-4.028
	c-1.634,0-2.901,1.155-3.324,2.535c-0.113,0.31-0.169,0.732-0.169,1.154v8.197h-2.479V398.405z"/>
<path fill="none" stroke="#000000" d="M426.071,394.716c-0.057,0.985-0.113,2.084-0.113,3.746v7.915c0,3.127-0.62,5.042-1.943,6.225
	c-1.324,1.24-3.239,1.634-4.958,1.634c-1.634,0-3.437-0.394-4.535-1.126l0.62-1.888c0.901,0.563,2.31,1.07,4,1.07
	c2.535,0,4.394-1.324,4.394-4.76v-1.521h-0.056c-0.761,1.268-2.226,2.281-4.338,2.281c-3.38,0-5.803-2.873-5.803-6.647
	c0-4.619,3.014-7.239,6.141-7.239c2.366,0,3.662,1.239,4.253,2.366h0.056l0.113-2.056H426.071z M423.508,400.096
	c0-0.423-0.028-0.789-0.141-1.127c-0.451-1.437-1.662-2.619-3.465-2.619c-2.366,0-4.056,1.999-4.056,5.154
	c0,2.676,1.352,4.901,4.028,4.901c1.521,0,2.901-0.958,3.436-2.535c0.141-0.423,0.197-0.901,0.197-1.324V400.096z"/>
<path fill="none" stroke="#000000" d="M439.028,390.8v3.916h3.549v1.887h-3.549v7.352c0,1.69,0.479,2.648,1.859,2.648
	c0.648,0,1.127-0.085,1.437-0.169l0.112,1.858c-0.479,0.197-1.239,0.338-2.197,0.338c-1.155,0-2.084-0.366-2.676-1.042
	c-0.704-0.732-0.958-1.943-0.958-3.549v-7.437h-2.113v-1.887h2.113v-3.268L439.028,390.8z"/>
<path fill="none" stroke="#000000" d="M457.534,401.419c0,5.042-3.493,7.239-6.788,7.239c-3.69,0-6.535-2.704-6.535-7.014
	c0-4.563,2.986-7.239,6.76-7.239C454.887,394.405,457.534,397.251,457.534,401.419z M446.718,401.561
	c0,2.985,1.718,5.239,4.141,5.239c2.366,0,4.141-2.226,4.141-5.296c0-2.31-1.155-5.239-4.084-5.239
	C447.985,396.265,446.718,398.969,446.718,401.561z"/>
<path fill="none" stroke="#000000" d="M466.294,405.813c0.732,0.479,2.028,0.986,3.268,0.986c1.803,0,2.647-0.901,2.647-2.028
	c0-1.184-0.704-1.831-2.535-2.507c-2.45-0.873-3.605-2.226-3.605-3.859c0-2.197,1.775-4,4.704-4c1.38,0,2.591,0.395,3.352,0.846
	l-0.62,1.803c-0.535-0.338-1.521-0.789-2.789-0.789c-1.465,0-2.282,0.845-2.282,1.859c0,1.126,0.817,1.634,2.591,2.31
	c2.366,0.901,3.578,2.084,3.578,4.112c0,2.395-1.859,4.084-5.099,4.084c-1.493,0-2.873-0.366-3.831-0.929L466.294,405.813z"/>
<path fill="none" stroke="#000000" d="M479.167,401.982c0.056,3.353,2.197,4.732,4.676,4.732c1.774,0,2.845-0.31,3.774-0.704
	l0.422,1.774c-0.873,0.395-2.366,0.845-4.535,0.845c-4.197,0-6.704-2.76-6.704-6.872c0-4.113,2.422-7.353,6.394-7.353
	c4.451,0,5.634,3.916,5.634,6.423c0,0.507-0.057,0.901-0.084,1.154H479.167z M486.434,400.208c0.028-1.577-0.648-4.028-3.437-4.028
	c-2.507,0-3.605,2.311-3.802,4.028H486.434z"/>
<path fill="none" stroke="#000000" d="M493.279,401.982c0.056,3.353,2.197,4.732,4.676,4.732c1.774,0,2.845-0.31,3.774-0.704
	l0.422,1.774c-0.873,0.395-2.366,0.845-4.535,0.845c-4.197,0-6.704-2.76-6.704-6.872c0-4.113,2.422-7.353,6.394-7.353
	c4.451,0,5.634,3.916,5.634,6.423c0,0.507-0.057,0.901-0.084,1.154H493.279z M500.546,400.208c0.028-1.577-0.648-4.028-3.437-4.028
	c-2.507,0-3.605,2.311-3.802,4.028H500.546z"/>
<path fill="none" stroke="#000000" d="M523.39,404.631c0,1.408,0.028,2.647,0.112,3.718h-2.197l-0.141-2.226h-0.057
	c-0.647,1.099-2.084,2.535-4.507,2.535c-2.141,0-4.704-1.183-4.704-5.972v-7.971h2.479v7.549c0,2.591,0.788,4.338,3.042,4.338
	c1.662,0,2.816-1.155,3.268-2.254c0.141-0.366,0.226-0.816,0.226-1.268v-8.365h2.479V404.631z"/>
<path fill="none" stroke="#000000" d="M533.474,398.405c0-1.408-0.028-2.563-0.113-3.689h2.169l0.113,2.196h0.084
	c0.761-1.295,2.028-2.507,4.281-2.507c1.859,0,3.268,1.127,3.859,2.732h0.057c0.422-0.761,0.957-1.352,1.521-1.774
	c0.817-0.62,1.719-0.958,3.014-0.958c1.803,0,4.479,1.184,4.479,5.916v8.027h-2.423v-7.718c0-2.62-0.958-4.197-2.958-4.197
	c-1.408,0-2.507,1.042-2.929,2.254c-0.113,0.338-0.197,0.788-0.197,1.239v8.422h-2.423v-8.169c0-2.169-0.957-3.746-2.845-3.746
	c-1.549,0-2.676,1.239-3.07,2.479c-0.141,0.366-0.197,0.789-0.197,1.212v8.225h-2.422V398.405z"/>
<path fill="none" stroke="#000000" d="M557.501,394.716l2.985,8.056c0.31,0.901,0.647,1.972,0.873,2.788h0.057
	c0.253-0.816,0.535-1.858,0.873-2.845l2.704-7.999h2.62l-3.719,9.718c-1.774,4.676-2.985,7.07-4.676,8.534
	c-1.211,1.07-2.422,1.493-3.042,1.605l-0.62-2.084c0.62-0.197,1.437-0.592,2.169-1.211c0.677-0.535,1.521-1.493,2.085-2.761
	c0.112-0.254,0.197-0.45,0.197-0.592c0-0.141-0.057-0.338-0.169-0.647l-5.042-12.563H557.501z"/>
<path fill="none" stroke="#000000" d="M576.823,394.716l1.803,6.929c0.395,1.521,0.761,2.93,1.015,4.338h0.084
	c0.31-1.38,0.761-2.845,1.211-4.31l2.226-6.957h2.084l2.113,6.816c0.507,1.634,0.901,3.07,1.211,4.45h0.085
	c0.225-1.38,0.591-2.816,1.042-4.422l1.943-6.845h2.45l-4.394,13.633h-2.254l-2.084-6.507c-0.479-1.521-0.873-2.873-1.212-4.479
	h-0.056c-0.338,1.634-0.761,3.042-1.239,4.507l-2.197,6.479H578.4l-4.112-13.633H576.823z"/>
<path fill="none" stroke="#000000" d="M597.668,401.982c0.057,3.353,2.197,4.732,4.676,4.732c1.774,0,2.845-0.31,3.774-0.704
	l0.423,1.774c-0.873,0.395-2.366,0.845-4.535,0.845c-4.197,0-6.704-2.76-6.704-6.872c0-4.113,2.423-7.353,6.395-7.353
	c4.45,0,5.633,3.916,5.633,6.423c0,0.507-0.056,0.901-0.084,1.154H597.668z M604.936,400.208c0.027-1.577-0.648-4.028-3.437-4.028
	c-2.507,0-3.605,2.311-3.803,4.028H604.936z"/>
<path fill="none" stroke="#000000" d="M610.286,408.349c0.057-0.93,0.113-2.31,0.113-3.521V388.35h2.45v8.563h0.057
	c0.873-1.521,2.45-2.507,4.647-2.507c3.38,0,5.774,2.817,5.746,6.958c0,4.873-3.07,7.295-6.112,7.295
	c-1.972,0-3.549-0.76-4.563-2.563h-0.084l-0.113,2.253H610.286z M612.85,402.884c0,0.311,0.057,0.62,0.112,0.901
	c0.479,1.719,1.916,2.901,3.719,2.901c2.591,0,4.141-2.112,4.141-5.239c0-2.732-1.408-5.07-4.057-5.07
	c-1.689,0-3.268,1.155-3.774,3.043c-0.056,0.281-0.141,0.619-0.141,1.014V402.884z"/>
<path fill="none" stroke="#000000" d="M625.159,406.884c0-1.042,0.704-1.774,1.69-1.774c0.985,0,1.661,0.732,1.661,1.774
	c0,1.015-0.647,1.774-1.689,1.774C625.835,408.658,625.159,407.898,625.159,406.884z"/>
</svg>
